<svg width="30" height="30" viewBox="0 0 30 30" fill="none" xmlns="http://www.w3.org/2000/svg">
<circle cx="15" cy="15" r="15" fill="#F5F5F5"/>
<path fill-rule="evenodd" clip-rule="evenodd" d="M13.3958 7.04613C13.3959 6.88025 13.3443 6.71847 13.2481 6.58343C13.1519 6.44839 13.016 6.34686 12.8594 6.29303C12.7028 6.23921 12.5333 6.23579 12.3747 6.28326C12.216 6.33072 12.0762 6.42669 11.9747 6.55774L6.41727 13.7165C6.30886 13.8562 6.25 14.028 6.25 14.2049C6.25 14.3818 6.30886 14.5537 6.41727 14.6933L11.9747 21.8521C12.0762 21.9832 12.216 22.0792 12.3747 22.1266C12.5333 22.1741 12.7028 22.1707 12.8594 22.1168C13.016 22.063 13.1519 21.9615 13.2481 21.8264C13.3443 21.6914 13.3959 21.5296 13.3958 21.3637V18.19C17.6662 18.2791 19.7177 19.0912 20.7482 19.9741C21.7279 20.8133 21.9073 21.8004 22.0938 22.8345L22.1423 23.1009C22.1779 23.2916 22.2818 23.4627 22.4345 23.5819C22.5872 23.7012 22.7782 23.7604 22.9714 23.7485C23.1647 23.7366 23.3469 23.6543 23.4839 23.5172C23.6208 23.38 23.703 23.1975 23.715 23.0039C23.8508 20.8181 23.6467 17.6507 22.1058 15.0012C20.61 12.4296 17.9163 10.4521 13.3958 10.2453V7.04613Z" fill="#8C6E21"/>
</svg>
